<?xml version="1.0" encoding="UTF-8" standalone="no"?>
<svg
   xmlns:dc="http://purl.org/dc/elements/1.1/"
   xmlns:cc="http://creativecommons.org/ns#"
   xmlns:rdf="http://www.w3.org/1999/02/22-rdf-syntax-ns#"
   xmlns:svg="http://www.w3.org/2000/svg"
   xmlns="http://www.w3.org/2000/svg"
   xmlns:xlink="http://www.w3.org/1999/xlink"
   xmlns:sodipodi="http://sodipodi.sourceforge.net/DTD/sodipodi-0.dtd"
   xmlns:inkscape="http://www.inkscape.org/namespaces/inkscape"
   inkscape:version="1.0 (4035a4fb49, 2020-05-01)"
   sodipodi:docname="ribbon.svg"
   id="svg973"
   viewBox="0 0 4000 4000"
   style="shape-rendering:geometricPrecision; text-rendering:geometricPrecision; image-rendering:optimizeQuality; fill-rule:evenodd; clip-rule:evenodd"
   version="1.1"
   xml:space="preserve"><metadata
   id="metadata977"><rdf:RDF><cc:Work
       rdf:about=""><dc:format>image/svg+xml</dc:format><dc:type
         rdf:resource="http://purl.org/dc/dcmitype/StillImage" /><dc:title></dc:title></cc:Work></rdf:RDF></metadata><sodipodi:namedview
   inkscape:current-layer="svg973"
   inkscape:window-maximized="1"
   inkscape:window-y="-11"
   inkscape:window-x="-11"
   inkscape:cy="1800"
   inkscape:cx="2000"
   inkscape:zoom="0.2"
   showgrid="false"
   id="namedview975"
   inkscape:window-height="986"
   inkscape:window-width="1920"
   inkscape:pageshadow="2"
   inkscape:pageopacity="0"
   guidetolerance="10"
   gridtolerance="10"
   objecttolerance="10"
   borderopacity="1"
   bordercolor="#666666"
   pagecolor="#ffffff" />
 <defs
   id="defs936">
  <style
   id="style906"
   type="text/css">
   <![CDATA[
    .fil4 {fill:url(#id0)}
    .fil9 {fill:url(#id1)}
    .fil6 {fill:url(#id2)}
    .fil1 {fill:url(#id3)}
    .fil5 {fill:url(#id4)}
    .fil0 {fill:url(#id5)}
    .fil8 {fill:url(#id6)}
    .fil3 {fill:url(#id7)}
    .fil7 {fill:url(#id8)}
    .fil2 {fill:url(#id9)}
   ]]>
  </style>
  <linearGradient
   y2="1280.37"
   x2="3421.2"
   y1="1280.37"
   x1="578.626"
   gradientUnits="userSpaceOnUse"
   id="id0">
   <stop
   id="stop908"
   style="stop-opacity:1; stop-color:#E82C2C"
   offset="0" />
   <stop
   id="stop910"
   style="stop-opacity:1; stop-color:#CC0202"
   offset="0.0392157" />
   <stop
   id="stop912"
   style="stop-opacity:1; stop-color:#8F0707"
   offset="0.478431" />
   <stop
   id="stop914"
   style="stop-opacity:1; stop-color:#CC0202"
   offset="0.921569" />
   <stop
   id="stop916"
   style="stop-opacity:1; stop-color:#EB5555"
   offset="1" />
  </linearGradient>
  <linearGradient
   y2="2719.46"
   x2="3421.2"
   y1="2719.46"
   x1="578.626"
   xlink:href="#id0"
   gradientUnits="userSpaceOnUse"
   id="id1">
  </linearGradient>
  <linearGradient
   y2="3124.74"
   x2="3383.03"
   y1="3140.15"
   x1="3192.63"
   gradientUnits="userSpaceOnUse"
   id="id2">
   <stop
   id="stop920"
   style="stop-opacity:1; stop-color:#E6E6E6"
   offset="0" />
   <stop
   id="stop922"
   style="stop-opacity:1; stop-color:#A89B9B"
   offset="1" />
  </linearGradient>
  <linearGradient
   y2="875.189"
   x2="3383.03"
   y1="859.791"
   x1="3192.63"
   xlink:href="#id2"
   gradientUnits="userSpaceOnUse"
   id="id3">
  </linearGradient>
  <linearGradient
   y2="3024.47"
   x2="3636.9"
   y1="2967.14"
   x1="3321.6"
   gradientUnits="userSpaceOnUse"
   id="id4">
   <stop
   id="stop926"
   style="stop-opacity:1; stop-color:#CC0202"
   offset="0" />
   <stop
   id="stop928"
   style="stop-opacity:1; stop-color:#A10F0F"
   offset="1" />
  </linearGradient>
  <linearGradient
   y2="975.433"
   x2="3636.9"
   y1="1032.76"
   x1="3321.6"
   xlink:href="#id4"
   gradientUnits="userSpaceOnUse"
   id="id5">
  </linearGradient>
  <linearGradient
   y2="3124.74"
   x2="807.366"
   y1="3140.15"
   x1="616.969"
   xlink:href="#id2"
   gradientUnits="userSpaceOnUse"
   id="id6">
  </linearGradient>
  <linearGradient
   y2="875.189"
   x2="807.366"
   y1="859.791"
   x1="616.969"
   xlink:href="#id2"
   gradientUnits="userSpaceOnUse"
   id="id7">
  </linearGradient>
  <linearGradient
   y2="3024.47"
   x2="678.39"
   y1="2967.14"
   x1="363.094"
   xlink:href="#id4"
   gradientUnits="userSpaceOnUse"
   id="id8">
  </linearGradient>
  <linearGradient
   y2="975.433"
   x2="678.39"
   y1="1032.76"
   x1="363.094"
   xlink:href="#id4"
   gradientUnits="userSpaceOnUse"
   id="id9">
  </linearGradient>
 <clipPath
   id="clipPath981"
   clipPathUnits="userSpaceOnUse"><rect
     clip-path="none"
     y="535"
     x="5"
     height="1200"
     width="4000"
     id="rect983"
     style="fill:#ffffff;stroke:#000000;stroke-width:0" /></clipPath><linearGradient
   y2="1280.37"
   x2="3421.2"
   y1="1280.37"
   x1="578.626"
   gradientUnits="userSpaceOnUse"
   id="linearGradient985"
   xlink:href="#id0"
   inkscape:collect="always" /><linearGradient
   y2="3024.47"
   x2="3636.9"
   y1="2967.14"
   x1="3321.6"
   gradientUnits="userSpaceOnUse"
   id="linearGradient987"
   xlink:href="#id4"
   inkscape:collect="always" /><linearGradient
   y2="3124.74"
   x2="3383.03"
   y1="3140.15"
   x1="3192.63"
   gradientUnits="userSpaceOnUse"
   id="linearGradient989"
   xlink:href="#id2"
   inkscape:collect="always" /></defs>
 <g
   transform="translate(-55,555)"
   clip-path="url(#clipPath981)"
   id="Layer_x0020_1">
  <metadata
   id="CorelCorpID_0Corel-Layer" />
  <g
   id="_284877704">
   <g
   id="g953">
    <g
   id="g943">
     <path
   style="fill:url(#id5)"
   id="path939"
   d="m 3781,640 c 0,0 -180,283 -128,405 52,122 186,260 125,327 -61,67 -247,33 -406,-37 -158,-70 -167,-412 -179,-494 -7,-46 -36,-133 -26,-185 9,-42 44,-56 132,-56 198,0 330,204 482,40 z"
   class="fil0" />
     <path
   style="fill:url(#id3)"
   id="path941"
   d="m 3168,654 c 0,0 -3,7 -3,20 -3,85 -11,405 2,405 16,0 220,34 249,-152 0,0 4,-49 -101,-95 -105,-46 -141,-115 -147,-178 z"
   class="fil1" />
    </g>
    <g
   id="g949">
     <path
   style="fill:url(#id9)"
   id="path945"
   d="m 219,640 c 0,0 180,283 128,405 -52,122 -186,260 -125,327 61,67 247,33 406,-37 158,-70 167,-412 179,-494 7,-46 36,-133 26,-185 -9,-42 -44,-56 -132,-56 -198,0 -330,204 -482,40 z"
   class="fil2" />
     <path
   style="fill:url(#id7)"
   id="path947"
   d="m 832,654 c 0,0 3,7 3,20 3,85 11,405 -2,405 -16,0 -220,34 -249,-152 0,0 -4,-49 101,-95 105,-46 141,-115 147,-178 z"
   class="fil3" />
    </g>
    <path
   style="fill:url(#linearGradient985)"
   id="path951"
   d="m 2000,1594 c -209,0 -672,3 -1074,64 -403,61 -330,-17 -342,-17 -11,0 -2,-563 0,-684 0,-15 0,-23 0,-23 v -8 c 0,0 18,71 192,40 174,-30 381,-98 1224,-85 843,-13 1050,55 1224,85 174,31 192,-40 192,-40 v 8 c 0,0 0,8 0,23 2,121 11,684 0,684 -12,0 61,78 -342,17 -402,-61 -866,-64 -1074,-64 z"
   class="fil4" />
   </g>
   <g
   id="g969">
    <g
   id="g959">
     <path
   style="fill:url(#linearGradient987)"
   id="path955"
   d="m 3781,3360 c 0,0 -180,-283 -128,-405 52,-122 186,-260 125,-327 -61,-67 -247,-33 -406,37 -158,70 -167,412 -179,494 -7,45 -36,133 -26,185 9,42 44,56 132,56 198,0 330,-205 482,-40 z"
   class="fil5" />
     <path
   style="fill:url(#linearGradient989)"
   id="path957"
   d="m 3168,3346 c 0,0 -3,-7 -3,-20 -3,-85 -11,-405 2,-405 16,0 220,-34 249,152 0,0 4,49 -101,95 -105,46 -141,115 -147,178 z"
   class="fil6" />
    </g>
    <g
   id="g965">
     <path
   style="fill:url(#id8)"
   id="path961"
   d="m 219,3360 c 0,0 180,-283 128,-405 -52,-122 -186,-260 -125,-327 61,-67 247,-33 406,37 158,70 167,412 179,494 7,45 36,133 26,185 -9,42 -44,56 -132,56 -198,0 -330,-205 -482,-40 z"
   class="fil7" />
     <path
   style="fill:url(#id6)"
   id="path963"
   d="m 832,3346 c 0,0 3,-7 3,-20 3,-85 11,-405 -2,-405 -16,0 -220,-34 -249,152 0,0 -4,49 101,95 105,46 141,115 147,178 z"
   class="fil8" />
    </g>
    <path
   style="fill:url(#id1)"
   id="path967"
   d="m 2000,2406 c -209,0 -672,-3 -1074,-64 -403,-61 -330,16 -342,16 -11,0 -2,564 0,685 0,15 0,23 0,23 v 8 c 0,0 18,-71 192,-40 174,30 381,97 1224,85 843,12 1050,-55 1224,-85 174,-31 192,40 192,40 v -8 c 0,0 0,-8 0,-23 2,-121 11,-685 0,-685 -12,0 61,-77 -342,-16 -402,61 -866,64 -1074,64 z"
   class="fil9" />
   </g>
  </g>
 </g>
</svg>
